<svg xmlns="http://www.w3.org/2000/svg" xmlns:xlink="http://www.w3.org/1999/xlink" width="509" height="496" viewBox="0 0 509 496">
  <defs>
    <filter id="Rectangle_54684" x="0" y="0" width="509" height="496" filterUnits="userSpaceOnUse">
      <feOffset input="SourceAlpha"/>
      <feGaussianBlur stdDeviation="3" result="blur"/>
      <feFlood flood-color="#bcbcbc" flood-opacity="0.102"/>
      <feComposite operator="in" in2="blur"/>
      <feComposite in="SourceGraphic"/>
    </filter>
  </defs>
  <g id="Component_679_3" data-name="Component 679 – 3" transform="translate(9 9)">
    <g transform="matrix(1, 0, 0, 1, -9, -9)" filter="url(#Rectangle_54684)">
      <g id="Rectangle_54684-2" data-name="Rectangle 54684" transform="translate(9 9)" fill="#fff" stroke="#f0f0f0" stroke-width="1">
        <rect width="491" height="478" rx="60" stroke="none"/>
        <rect x="0.5" y="0.5" width="490" height="477" rx="59.5" fill="none"/>
      </g>
    </g>
    <g id="Group_142611" data-name="Group 142611" transform="translate(-533.645 -301)">
      <path id="Path_75153" data-name="Path 75153" d="M2733.661,1131.612a81.787,81.787,0,0,1-13.1,44.526q-.659,1.025-1.354,2.032a82.594,82.594,0,0,1-24.969,23.64q-1.006.613-2.032,1.2a81.815,81.815,0,0,1-40.74,10.792,82.91,82.91,0,0,1-8.6-.445c-.681-.071-1.357-.15-2.032-.239a82.167,82.167,0,0,1-57.112-34.951q-.694-1.006-1.354-2.032a82.372,82.372,0,0,1-8.415-71.941c.241-.681.493-1.359.75-2.032a82.286,82.286,0,0,1,66.131-52.064c.676-.089,1.352-.168,2.032-.239a82.944,82.944,0,0,1,8.6-.445,81.806,81.806,0,0,1,40.74,10.792q1.025.587,2.032,1.2a82.335,82.335,0,0,1,7.38,5.078q1.029.792,2.032,1.621a82.4,82.4,0,0,1,24.575,34.054c.256.673.508,1.352.747,2.032A82.05,82.05,0,0,1,2733.661,1131.612Z" transform="translate(-1781.392 -594.287)" fill="#ecf3fe"/>
      <path id="Path_75154" data-name="Path 75154" d="M3889.4,1166.332v140.4q-1.006.613-2.032,1.2v-142.8Q3888.389,1165.717,3889.4,1166.332Z" transform="translate(-2976.547 -699.208)" fill="#fff"/>
      <path id="Path_75155" data-name="Path 75155" d="M3338.587,1054.183v163.5c-.681-.071-1.357-.15-2.033-.239V1054.422C3337.23,1054.333,3337.906,1054.254,3338.587,1054.183Z" transform="translate(-2477.11 -598.609)" fill="#fff"/>
      <path id="Path_75156" data-name="Path 75156" d="M2774.5,1616.994H2619.477c.241-.681.493-1.359.75-2.032H2773.75C2774.007,1615.635,2774.258,1616.313,2774.5,1616.994Z" transform="translate(-1826.913 -1107.085)" fill="#fff"/>
      <path id="Path_75157" data-name="Path 75157" d="M2847.887,2408.093q-.659,1.025-1.354,2.033H2711.047q-.694-1.007-1.354-2.033Z" transform="translate(-1908.714 -1826.242)" fill="#fff"/>
      <ellipse id="Ellipse_1011" data-name="Ellipse 1011" cx="166.152" cy="7.001" rx="166.152" ry="7.001" transform="translate(621.076 672.635)" fill="#d7e4f9"/>
      <g id="Group_142586" data-name="Group 142586" transform="translate(894.885 589.689)">
        <path id="Path_75158" data-name="Path 75158" d="M3833.768,2558.939l-12.725,74.988a1.032,1.032,0,0,1-1.19.844h0a1.031,1.031,0,0,1-.844-1.189l12.724-74.988" transform="translate(-3809.438 -2552.396)" fill="#33da82"/>
        <path id="Path_75159" data-name="Path 75159" d="M3718.592,2492.134l7.111,75.726a1.032,1.032,0,0,1-.93,1.124h0a1.032,1.032,0,0,1-1.124-.931l-7.111-75.726" transform="translate(-3716.538 -2492.134)" fill="#33da82"/>
        <rect id="Rectangle_54754" data-name="Rectangle 54754" width="14.801" height="23.625" transform="translate(2.149 63.573)" fill="#c4d7f2"/>
      </g>
      <circle id="Ellipse_1012" data-name="Ellipse 1012" cx="121.61" cy="121.61" r="121.61" transform="translate(617.912 407.238)" fill="#ecf3fe"/>
      <g id="Group_142597" data-name="Group 142597" transform="translate(644.417 451.974)">
        <path id="Path_75160" data-name="Path 75160" d="M1989.755,1184.021a287.112,287.112,0,0,1,5.286-123.144,3.329,3.329,0,0,0-3.114-4.361l-82.816-3.555a5.721,5.721,0,0,0-5.433,3.994,287.116,287.116,0,0,0-5.286,123.144,5.721,5.721,0,0,0,5.071,4.445l82.816,3.555A3.329,3.329,0,0,0,1989.755,1184.021Z" transform="translate(-1813.594 -1049.466)" fill="#3b82f4"/>
        <path id="Path_75161" data-name="Path 75161" d="M2730.032,1462.847l-81.943-12.5a5.721,5.721,0,0,0-5.834,3.382,287.111,287.111,0,0,0-18.593,121.847,5.721,5.721,0,0,0,4.56,4.968l81.944,12.5a3.329,3.329,0,0,0,3.9-3.677,287.111,287.111,0,0,1,18.593-121.847A3.33,3.33,0,0,0,2730.032,1462.847Z" transform="translate(-2474.579 -1409.734)" fill="#3b82f4"/>
        <g id="Group_142589" data-name="Group 142589" transform="translate(141.56 37.82)">
          <path id="Path_75162" data-name="Path 75162" d="M2654.117,1433.949a287.147,287.147,0,0,0-12.358,122.636,3.329,3.329,0,0,1-3.7,3.872q-41.237-4.157-82.475-8.311a5.724,5.724,0,0,1-4.808-4.73q-1.557-13.42-1.854-26.864a287.1,287.1,0,0,1,14.212-95.772,5.722,5.722,0,0,1,5.655-3.675l14.028,1.414,68.447,6.9A3.329,3.329,0,0,1,2654.117,1433.949Z" transform="translate(-2548.849 -1421.073)" fill="#fff"/>
          <g id="Group_142588" data-name="Group 142588" transform="translate(28.121 25.122)">
            <path id="Path_75163" data-name="Path 75163" d="M2884.091,1729.39c-.258.183-.521.366-.789.541a22,22,0,0,1-12.65,3.6,21.01,21.01,0,0,1-13.555-5.364,23.978,23.978,0,0,1-3.948-4.759,19.566,19.566,0,0,1-2.69-12.219c1.2-12.017,13.317-21.032,24.984-20.758,11.73.276,19.883,10.645,18.543,22.074A24.571,24.571,0,0,1,2884.091,1729.39Z" transform="translate(-2850.356 -1690.43)" fill="#ecf3fe"/>
            <path id="Path_75164" data-name="Path 75164" d="M2919.239,1812.976c.021-.2.05-.436.089-.7a11,11,0,0,1,.648-2.534,10.014,10.014,0,0,0,2.756-2.431c2.8,2.391,4.825-2.116,5.389-4.172a9.221,9.221,0,0,0,.362-4.494c-.865-2.417-3.7-1.65-4.143-1.949-1.133-.771-2-2.825-3.819-3.64a4.532,4.532,0,0,0-3.781.191,6.745,6.745,0,0,0-2.077,1.526.014.014,0,0,1-.007.007,4.867,4.867,0,0,0-1.419,3.881,3.759,3.759,0,0,0,.409,1.306,2.507,2.507,0,0,0,.953.969,3.24,3.24,0,0,0,.519.243,10.907,10.907,0,0,0-.523.969c-.147.3-.28.622-.4.941a8.1,8.1,0,0,0-.5,4.2,5,5,0,0,0,.707,1.829l-.071.092c-.454.579-.7.9-1.175,1.508l-.5.638-.293.379c-.145.188-.292.377-.46.6-.071.092-.147.19-.227.294-.964.007-1.942.083-2.9.182l-.145.016c-.08.007-.16.016-.237.025-1.074.12-2.183.214-3.076.365-2.8.47-5.752,2.522-8.392,3.938a15.288,15.288,0,0,0,2.4,3.769,20.5,20.5,0,0,0,2.171,1.689c.073.049.145.1.216.143a21.451,21.451,0,0,0,9.2,3.379l.1.014h.007c.073.009.145.018.22.023s.159.018.239.027l.088.007c.186.018.372.032.56.043.1.009.211.014.317.019.144.007.289.014.434.018a21.432,21.432,0,0,0,4.194-.289c.236-.041.47-.083.7-.131.415-.083.829-.179,1.239-.287.128-.034.255-.069.381-.1s.256-.073.383-.11.254-.078.379-.119.253-.082.377-.126.25-.087.374-.131h0q.186-.066.372-.138c.124-.048.246-.1.369-.145h0a22.15,22.15,0,0,0,2.162-1.007c.117-.062.234-.126.349-.191s.23-.129.345-.2c0,0,0,0,0,0,.344-.2.684-.409,1.017-.627v0q.4-.26.789-.539c-.133-1.489-.208-2.787-.3-3.56-.26-2.27-3.021-3.923-5.35-4.838-.53-.209-1.039-.379-1.489-.509h0a1.845,1.845,0,0,0,.044-.238A.128.128,0,0,0,2919.239,1812.976Zm6.009-10.071-.154.25c-.011,0-.021-.007-.034-.009C2925.154,1803.028,2925.221,1802.941,2925.248,1802.906Z" transform="translate(-2892.59 -1783.188)" fill="#003889" opacity="0.18" style="mix-blend-mode: multiply;isolation: isolate"/>
            <g id="Group_142587" data-name="Group 142587" transform="translate(2.792 7.438)">
              <path id="Path_75165" data-name="Path 75165" d="M3130.549,1890.5c.624-1.594.941-2.391,1.588-3.981l3.067-.276C3135.073,1888.093,3133.417,1893.657,3130.549,1890.5Z" transform="translate(-3107.208 -1875.418)" fill="#1f3a6f"/>
              <path id="Path_75166" data-name="Path 75166" d="M3185.059,1886.627" transform="translate(-3156.634 -1875.766)" fill="#596bef"/>
              <path id="Path_75167" data-name="Path 75167" d="M2910.449,2004.134a22.006,22.006,0,0,1-12.65,3.6,21.2,21.2,0,0,1-17.5-10.121c2.337-1.488,4.926-3.6,7.5-4.134a38.112,38.112,0,0,1,6.128-.637,12.6,12.6,0,0,1,2.583.188c1.709.3,2.7.744,3.313.794s1.01-.542,1.585-.381c2.716.76,6.875,2.652,7.707,5.536C2909.584,2000.632,2909.994,2002.419,2910.449,2004.134Z" transform="translate(-2880.295 -1972.071)" fill="#facf55"/>
              <path id="Path_75168" data-name="Path 75168" d="M3029.761,2001.4c-.959,2.959-4.233,7.548-5.526,7.454s-2.7-5.157-2.084-7.917Z" transform="translate(-3008.784 -1979.411)" fill="#1f3a6f"/>
              <path id="Path_75169" data-name="Path 75169" d="M3030.815,1950.279a4.663,4.663,0,0,1-4.244,1.856c-2.351-.151-2.954-1.446-3.087-2.306a1.94,1.94,0,0,1,.229-1.219c.443-.816.667-1.224,1.116-2.039.567-1.028.854-1.541,1.431-2.567l5.188,1.1a9.7,9.7,0,0,0-.277,3.062c.01.273.027.521.043.727A2.061,2.061,0,0,1,3030.815,1950.279Z" transform="translate(-3010.11 -1927.792)" fill="#fdc8aa"/>
              <path id="Path_75170" data-name="Path 75170" d="M3044.453,1948.164c-1.28,2.8-5.147-.477-6.342-1.592.567-1.028.854-1.541,1.431-2.567l5.188,1.1A9.7,9.7,0,0,0,3044.453,1948.164Z" transform="translate(-3023.392 -1927.792)" fill="#efa37d"/>
              <path id="Path_75171" data-name="Path 75171" d="M3042.95,1820.2c-.521,3.01-2.849,7.192-6.379,6.906-3.454-.28-4.588-4.9-4.035-7.757.063-.327.137-.666.219-.981.71-2.75,3.256-6.133,6.353-5.892,2.21.172,3.563,2.364,3.882,4.418A10.287,10.287,0,0,1,3042.95,1820.2Z" transform="translate(-3018.215 -1808.521)" fill="#fdc8aa"/>
              <path id="Path_75172" data-name="Path 75172" d="M3046.415,1816.894c-.606,1.382-.905,2.074-1.493,3.46-.7-1.734-3.293-1.532-4.745-1.5a10.263,10.263,0,0,1-4-.483c.679-2.8,3.256-6.133,6.353-5.892C3044.743,1812.648,3046.114,1814.815,3046.415,1816.894Z" transform="translate(-3021.641 -1808.52)" fill="#efa37d"/>
              <path id="Path_75173" data-name="Path 75173" d="M3019.5,1770.542c1.836.911,3.218,3.214,4.417,3.772,1.057.492,3.477.141,4.424,2.011a10.225,10.225,0,0,1,.475,4.677l-3.067.276c.086-.211.129-.317.216-.528,0,0-1.9,2.615-2.066,2.4-.467-.574.338-3.785-2.549-3.683-2.738.1-6.933.413-7.969-3.068C3012.362,1773,3016.24,1768.927,3019.5,1770.542Z" transform="translate(-3000.815 -1770.178)" fill="#1f3a6f"/>
              <path id="Path_75174" data-name="Path 75174" d="M3124.839,1887.167a1.939,1.939,0,0,1,1.191-.994,1.147,1.147,0,0,1,1.349.549c.8,1.236-1.395,3.471-2.594,2.752l-.374-.812A4.14,4.14,0,0,1,3124.839,1887.167Z" transform="translate(-3101.642 -1875.311)" fill="#fdc8aa"/>
            </g>
          </g>
          <path id="Path_75175" data-name="Path 75175" d="M2813.166,1519.424l-35.384-3.566a2.033,2.033,0,0,1-1.791-2.726h0a3.284,3.284,0,0,1,3.309-2.209l35.384,3.566a2.016,2.016,0,0,1,1.768,2.72h0A3.261,3.261,0,0,1,2813.166,1519.424Z" transform="translate(-2754.706 -1502.531)" fill="#3b82f4"/>
          <path id="Path_75176" data-name="Path 75176" d="M2892.359,2222.551l-30.573-3.081a1.85,1.85,0,0,1-1.644-1.958h0a1.719,1.719,0,0,1,1.894-1.6l30.573,3.081a1.84,1.84,0,0,1,1.632,1.957h0A1.709,1.709,0,0,1,2892.359,2222.551Z" transform="translate(-2831.105 -2141.769)" fill="#ecf3fe"/>
          <path id="Path_75177" data-name="Path 75177" d="M2771.973,2326.4a1.674,1.674,0,0,1-.553,1.21,1.635,1.635,0,0,1-1.26.4l-57.254-5.77a1.938,1.938,0,0,1-1.713-1.962,1.642,1.642,0,0,1,1.825-1.607l57.254,5.77A1.929,1.929,0,0,1,2771.973,2326.4Z" transform="translate(-2696.051 -2234.943)" fill="#ecf3fe"/>
          <path id="Path_75178" data-name="Path 75178" d="M2717.691,2450.49l-69.008-6.954a2.041,2.041,0,0,1-1.788-1.965h0a1.56,1.56,0,0,1,1.749-1.609l69.008,6.955a2.03,2.03,0,0,1,1.777,1.964h0A1.551,1.551,0,0,1,2717.691,2450.49Z" transform="translate(-2637.75 -2344.924)" fill="#ecf3fe"/>
          <path id="Path_75179" data-name="Path 75179" d="M2720.759,2556.525l-69.008-6.954a2.131,2.131,0,0,1-1.851-1.965h0a1.5,1.5,0,0,1,1.687-1.609l69.008,6.954a2.12,2.12,0,0,1,1.84,1.965h0A1.487,1.487,0,0,1,2720.759,2556.525Z" transform="translate(-2640.473 -2441.069)" fill="#ecf3fe"/>
          <path id="Path_75180" data-name="Path 75180" d="M2727.532,2662.536l-69.008-6.954a2.225,2.225,0,0,1-1.914-1.963h0a1.435,1.435,0,0,1,1.624-1.609l69.008,6.954a2.214,2.214,0,0,1,1.9,1.964h0A1.427,1.427,0,0,1,2727.532,2662.536Z" transform="translate(-2646.554 -2537.195)" fill="#ecf3fe"/>
          <path id="Path_75181" data-name="Path 75181" d="M2739.97,2321.384c-.053,1.427-.076,2.141-.111,3.569l-26.953-2.716a1.938,1.938,0,0,1-1.713-1.962,1.642,1.642,0,0,1,1.825-1.607Z" transform="translate(-2696.051 -2234.943)" fill="#33da82"/>
        </g>
        <path id="Path_75182" data-name="Path 75182" d="M1239.806,1409.061a290.214,290.214,0,0,1-4.429-123.177,3.323,3.323,0,0,0-3.411-4.105l-81.933,2.893a5.668,5.668,0,0,0-5.044,4.4,290.212,290.212,0,0,0,4.429,123.177,5.677,5.677,0,0,0,5.348,4.037l81.933-2.893A3.319,3.319,0,0,0,1239.806,1409.061Z" transform="translate(-1130.204 -1256.947)" fill="#3b82f4"/>
        <path id="Path_75183" data-name="Path 75183" d="M2583.521,1518.505a3.29,3.29,0,0,1-2.6,3.308,3.572,3.572,0,0,1-.943.071q-15.528-.664-31.055-1.333a287.1,287.1,0,0,1,14.212-95.772,5.722,5.722,0,0,1,5.655-3.675l14.028,1.414q-.627,3.881-1.146,7.776-.338,2.509-.625,5.024-1.4,12.121-1.769,24.314-.282,9.4.053,18.814.3,8.421,1.094,16.831.172,1.813.367,3.622.4,3.751.9,7.5.242,1.818.51,3.633.572,3.894,1.249,7.777A3.783,3.783,0,0,1,2583.521,1518.505Z" transform="translate(-2407.289 -1383.253)" fill="#003889" opacity="0.18" style="mix-blend-mode: multiply;isolation: isolate"/>
        <g id="Group_142592" data-name="Group 142592" transform="translate(71.91 0)">
          <path id="Path_75184" data-name="Path 75184" d="M1900.212,1143.058a3.331,3.331,0,0,1-3.3,4.225h-82.891a5.721,5.721,0,0,1-5.258-4.225,286.988,286.988,0,0,1-3.879-101.693q1.523-10.826,3.879-21.564a5.721,5.721,0,0,1,5.258-4.223h82.891a3.329,3.329,0,0,1,3.3,4.223A287.134,287.134,0,0,0,1900.212,1143.058Z" transform="translate(-1802.073 -1015.578)" fill="#fff"/>
          <g id="Group_142591" data-name="Group 142591" transform="translate(24.78 21.439)">
            <path id="Path_75185" data-name="Path 75185" d="M2111.224,1265.11a24.566,24.566,0,0,1-3.384,12.477q-.261.444-.541.877c-3.666,5.679-10.009,9.956-16.7,10.361a25.577,25.577,0,0,1-6.833-.446,20.851,20.851,0,0,1-15-13.407,22.026,22.026,0,0,1-.987-5.812c-.606-11.943,10.681-22.46,22.285-23.615C2101.723,1244.386,2111.173,1253.567,2111.224,1265.11Z" transform="translate(-2067.756 -1245.447)" fill="#ecf3fe"/>
            <path id="Path_75186" data-name="Path 75186" d="M2149.126,1372.423q-.261.445-.541.877c-3.666,5.679-10.009,9.956-16.7,10.361a28.082,28.082,0,0,1-6.833-.446,17.437,17.437,0,0,1-11.76-12.944l10.948.83,2.931-.884c-.024-.277-.036-.416-.06-.693l.263-.016c-2.085-1.395-2.814-4.929-1.32-6.73,1.382-1.666.632-4.741,1.392-6.795a6.352,6.352,0,0,1,4.813-4.078,3.188,3.188,0,0,1,.519-.679c3.669-2.568,9.3-.882,8.863,4.123-.278,3.16,2.34,7.548,3.085,10.508.6,2.368.14,3.842-.7,4.494C2145.75,1370.957,2147.46,1371.667,2149.126,1372.423Z" transform="translate(-2109.042 -1340.282)" fill="#003889" opacity="0.18" style="mix-blend-mode: multiply;isolation: isolate"/>
            <g id="Group_142590" data-name="Group 142590" transform="translate(1.011 9.679)">
              <path id="Path_75187" data-name="Path 75187" d="M2208.546,1369.079a5.476,5.476,0,0,0-5.289,4.058c-.49,2.032.588,4.994-.641,6.7-1.591,2.212.387,6.152,2.817,7.024,2.1.753,4.885.166,7.072-.417Q2210.306,1377.809,2208.546,1369.079Z" transform="translate(-2190.53 -1367.227)" fill="#1f3a6f"/>
              <path id="Path_75188" data-name="Path 75188" d="M2235.417,1387.493c0,.011,0,.025,0,.036a8.375,8.375,0,0,1-1.437,4.228c-.035.05-.07.1-.108.148a5.042,5.042,0,0,1-3.858,2.258c-3.18.066-5.113-3.673-4.718-6.369a8.377,8.377,0,0,1,2.353-5.2,4.93,4.93,0,0,1,3.2-1.425c2.781,0,4.592,3.018,4.586,5.63C2235.429,1387.02,2235.43,1387.258,2235.417,1387.493Z" transform="translate(-2211.565 -1378.191)" fill="#fdc8aa"/>
              <path id="Path_75189" data-name="Path 75189" d="M2117.127,1545.813a22.739,22.739,0,0,1-16.7,10.361c-9.361.819-18.825-4.755-21.829-13.853l11.182.97,2.869-.833,1.015-.294.637-.184.3-.087,3.29-.95,2.38-.408,1.26-.216.131-.023.556.226,2.264.917.394.159c.059.005.12.012.18.019s.122.015.186.025h0c.326.042.674.105,1.041.184a30.447,30.447,0,0,1,3.45,1C2112.244,1543.689,2114.7,1544.722,2117.127,1545.813Z" transform="translate(-2078.593 -1522.474)" fill="#facf55"/>
              <path id="Path_75190" data-name="Path 75190" d="M2257.911,1491.137q-4.747,3.8-9.459,7.644-.777-3.646-1.487-7.3l3.24-.936c-.07-.479-.1-.719-.173-1.2-.115-.8-.171-1.2-.28-2.008q2.38-1.372,4.765-2.737c.043.7.065,1.045.112,1.741.1,1.449.152,2.175.269,3.625a.088.088,0,0,1-.012.055l2.657,1.075C2257.663,1491.1,2257.785,1491.119,2257.911,1491.137Z" transform="translate(-2231.261 -1471.972)" fill="#fdc8aa"/>
              <path id="Path_75191" data-name="Path 75191" d="M2282.533,1486.339a12.312,12.312,0,0,1-4.6,3c-.08-.562-.119-.843-.2-1.4a5.188,5.188,0,0,0,3.731-2.253c.035-.047.073-.1.107-.147a7.563,7.563,0,0,0,.437-.707l.407-.234C2282.464,1485.294,2282.486,1485.643,2282.533,1486.339Z" transform="translate(-2259.165 -1471.972)" fill="#efa37d"/>
              <path id="Path_75192" data-name="Path 75192" d="M2272.063,1548.3l1.989.185c-3.367,3.208-10.088,9.659-10.088,9.659s-1.04-1.6-1.04-1.6Q2267.471,1552.393,2272.063,1548.3Z" transform="translate(-2245.732 -1529.73)" fill="#fff"/>
              <path id="Path_75193" data-name="Path 75193" d="M2229.825,1555l-2.063.107q.931,4.532,1.969,9.038c.523-.611.785-.917,1.311-1.528Q2230.4,1558.811,2229.825,1555Z" transform="translate(-2213.849 -1535.805)" fill="#fff"/>
              <path id="Path_75194" data-name="Path 75194" d="M2258.519,1673.258a.673.673,0,0,1-.6.722.65.65,0,0,1-.71-.6.673.673,0,0,1,.605-.722A.649.649,0,0,1,2258.519,1673.258Z" transform="translate(-2240.544 -1642.49)" fill="#fff"/>
              <path id="Path_75195" data-name="Path 75195" d="M2256.637,1350.495c-1.063,1.048-1.949,4.4.468,4.942,1.617.366,3.766-.143,3.494,2.288-.3,2.719,1.679,1.915,1.775,2.366s-1.137,2.048-.765,4.726c.217,1.562.413,4.346,2.684,3.928,2.111-.388.464-.649,2.7.67,3.413,2.012,4.487-1.583,3.406-4.283-1.188-2.964-4.216-7.164-4.32-10.436C2265.928,1349.957,2259.6,1347.575,2256.637,1350.495Z" transform="translate(-2239.056 -1349.219)" fill="#1f3a6f"/>
            </g>
          </g>
          <path id="Path_75196" data-name="Path 75196" d="M1993.068,1104.817H1957.5a2.034,2.034,0,0,1-2.055-2.533h0a3.284,3.284,0,0,1,3.071-2.529h35.564a2.016,2.016,0,0,1,2.032,2.529h0A3.261,3.261,0,0,1,1993.068,1104.817Z" transform="translate(-1941.099 -1091.904)" fill="#3b82f4"/>
          <path id="Path_75197" data-name="Path 75197" d="M2141.221,1797.9h-30.727a1.85,1.85,0,0,1-1.832-1.784h0a1.719,1.719,0,0,1,1.723-1.784h30.727a1.84,1.84,0,0,1,1.821,1.784h0A1.71,1.71,0,0,1,2141.221,1797.9Z" transform="translate(-2080.066 -1721.7)" fill="#ecf3fe"/>
          <path id="Path_75198" data-name="Path 75198" d="M2031.785,1913.366a1.668,1.668,0,0,1-.429,1.259,1.637,1.637,0,0,1-1.214.522H1972.6a1.938,1.938,0,0,1-1.9-1.781,1.641,1.641,0,0,1,1.654-1.781H2029.9A1.929,1.929,0,0,1,2031.785,1913.366Z" transform="translate(-1954.965 -1828.016)" fill="#ecf3fe"/>
          <path id="Path_75199" data-name="Path 75199" d="M1990.152,2042.349h-69.358a2.041,2.041,0,0,1-1.976-1.776h0a1.56,1.56,0,0,1,1.579-1.776h69.358a2.031,2.031,0,0,1,1.965,1.776h0A1.551,1.551,0,0,1,1990.152,2042.349Z" transform="translate(-1907.919 -1943.364)" fill="#ecf3fe"/>
          <path id="Path_75200" data-name="Path 75200" d="M2003.776,2147.6h-69.358a2.131,2.131,0,0,1-2.039-1.769h0a1.5,1.5,0,0,1,1.516-1.771h69.358a2.12,2.12,0,0,1,2.028,1.771h0A1.487,1.487,0,0,1,2003.776,2147.6Z" transform="translate(-1920.208 -2038.809)" fill="#ecf3fe"/>
          <path id="Path_75201" data-name="Path 75201" d="M2021.083,2252.457h-69.358a2.226,2.226,0,0,1-2.1-1.761h0a1.435,1.435,0,0,1,1.454-1.763h69.358a2.214,2.214,0,0,1,2.09,1.763h0A1.427,1.427,0,0,1,2021.083,2252.457Z" transform="translate(-1935.836 -2133.899)" fill="#ecf3fe"/>
          <path id="Path_75202" data-name="Path 75202" d="M2022.261,1911.585c.09,1.425.139,2.138.247,3.562H1972.6a1.938,1.938,0,0,1-1.9-1.781,1.641,1.641,0,0,1,1.654-1.781Z" transform="translate(-1954.965 -1828.016)" fill="#33da82"/>
        </g>
        <path id="Path_75203" data-name="Path 75203" d="M1830.8,1331.994q-.079,4.263-.032,8.531.021,1.781.062,3.562.1,4.152.314,8.3.093,1.778.208,3.553.2,3.137.471,6.266.154,1.77.328,3.539.308,3.123.684,6.241.21,1.762.447,3.525.874,6.592,2.056,13.149h-21.312a5.72,5.72,0,0,1-5.258-4.224,286.988,286.988,0,0,1-3.879-101.693l27.038-.955a3.256,3.256,0,0,1,3.425,2.7,3.653,3.653,0,0,1-.014,1.4q-2.007,11.164-3.133,22.406c-.005.057-.011.114-.018.168q-.136,1.363-.259,2.725-.149,1.664-.28,3.324a.063.063,0,0,0,0,.018q-.633,8.022-.817,16.055C1830.817,1331.057,1830.807,1331.525,1830.8,1331.994Z" transform="translate(-1730.164 -1256.956)" fill="#003889" opacity="0.18" style="mix-blend-mode: multiply;isolation: isolate"/>
        <g id="Group_142596" data-name="Group 142596" transform="translate(0 18.257)">
          <g id="Group_142595" data-name="Group 142595">
            <path id="Path_75204" data-name="Path 75204" d="M1131.382,1342.548l-81.667,7.212a5.667,5.667,0,0,1-5.548-3.75,290.208,290.208,0,0,1-10.781-122.783,5.674,5.674,0,0,1,4.809-4.664l80.3-7.094,1.364-.12a3.318,3.318,0,0,1,3.618,3.92,290.182,290.182,0,0,0,8.02,113.335q1.3,4.742,2.763,9.45A3.323,3.323,0,0,1,1131.382,1342.548Z" transform="translate(-1031.072 -1211.331)" fill="#fff"/>
            <g id="Group_142594" data-name="Group 142594" transform="translate(23.622 25.708)">
              <path id="Path_75205" data-name="Path 75205" d="M1327.006,1506.993a24.725,24.725,0,0,1-4.014,13.718c-.377.574-.784,1.13-1.2,1.664a22,22,0,0,1-14.061,8.167c-.336.047-.677.085-1.019.115-.257.023-.514.04-.769.054-.523.028-1.05.031-1.562.023a21.028,21.028,0,0,1-14.972-6.834,20.154,20.154,0,0,1-5.067-13.138c-.182-11.994,10.452-22.6,21.964-23.71C1317.894,1485.936,1326.9,1495.6,1327.006,1506.993Z" transform="translate(-1284.339 -1486.963)" fill="#ecf3fe"/>
              <path id="Path_75206" data-name="Path 75206" d="M1393.754,1621.482c-.376.574-.784,1.13-1.2,1.664a22,22,0,0,1-14.061,8.167c-.336.047-.677.085-1.019.115-.256.023-.514.04-.769.053h-.123a18.973,18.973,0,0,1-14.2-6.374,17.016,17.016,0,0,1,11.157-6.192h0l-.059-.158c.306-.815.46-1.223.771-2.038l.213.176.017-.064c.293-1.134.442-1.7.745-2.835a7.229,7.229,0,0,1-1.178-2.716,2.3,2.3,0,0,1-1.672-2.4c-.107-1.816.977-1.714,1.553-1.534a10.727,10.727,0,0,1,.243-1.227.178.178,0,0,1-.129-.108,4.458,4.458,0,0,1,1.229-5.089c2.678-2.124,8.881-3.795,11.621-2.178,1.032.609-1.1,3.231-.945,3.615a6.248,6.248,0,0,1-.983,3.27c0,.239,0,.488-.015.744.62-.285,1.732-.581,1.287,1.283a3.661,3.661,0,0,1-2.119,2.73,11.457,11.457,0,0,1-1.395,2.659c.041.257.093.578.151.936.111.679.234,1.407.349,2.054l.138-.125c.21.769.316,1.154.532,1.923C1387.13,1618.532,1391.171,1619.268,1393.754,1621.482Z" transform="translate(-1355.101 -1587.735)" fill="#003889" opacity="0.18" style="mix-blend-mode: multiply;isolation: isolate"/>
              <g id="Group_142593" data-name="Group 142593" transform="translate(5.068 8.432)">
                <path id="Path_75207" data-name="Path 75207" d="M1466.255,1745.752c-.25,3.017-1.828,6.145-5.061,6.542-3.017.371-4.655-2.563-4.634-5.208.156-1.059.236-1.589.4-2.649.25-1.605.38-2.408.652-4.014l7.148-.631c0,.037.166.737.4,1.672C1465.635,1743.415,1466.255,1745.752,1466.255,1745.752Z" transform="translate(-1445.565 -1724.643)" fill="#fdc8aa"/>
                <path id="Path_75208" data-name="Path 75208" d="M1371.064,1807.652a21.738,21.738,0,0,1-14.061,8.167c-.336.047-.677.085-1.019.115a22.775,22.775,0,0,1-2.331.077,21.093,21.093,0,0,1-14.972-6.834,15.049,15.049,0,0,1,10.647-6.506c.121-.015.188-.018.188-.018l.215.085,3.541,1.382.767.3.4.156.566-.324.742-.425c1.445-.827,2.168-1.241,3.617-2.068l.3-.173c3.133.71,9.419,1.707,10.8,4.616C1370.6,1806.483,1370.791,1807.018,1371.064,1807.652Z" transform="translate(-1338.68 -1780.671)" fill="#f4b545"/>
                <path id="Path_75209" data-name="Path 75209" d="M1469.061,1741.464c-1.728,2.887-4.908,5.071-8.195,2.973.25-1.605.38-2.408.651-4.014l7.148-.631C1468.666,1739.829,1468.831,1740.529,1469.061,1741.464Z" transform="translate(-1449.47 -1724.643)" fill="#efa37d"/>
                <path id="Path_75210" data-name="Path 75210" d="M1510.742,1784.067q2.1-2.2,4.218-4.4c.285.818.429,1.227.72,2.044q-.984,2.865-1.936,5.74C1512.534,1786.1,1511.934,1785.422,1510.742,1784.067Z" transform="translate(-1494.694 -1760.8)" fill="#fff"/>
                <path id="Path_75211" data-name="Path 75211" d="M1457.13,1791.926q-2.26-1.809-4.512-3.628c-.235.864-.352,1.3-.581,2.159q1.212,2.684,2.453,5.353C1455.536,1794.257,1456.064,1793.48,1457.13,1791.926Z" transform="translate(-1441.464 -1768.625)" fill="#fff"/>
                <path id="Path_75212" data-name="Path 75212" d="M1495.624,1832.449q-.506.069-1.019.115a20.923,20.923,0,0,1-2.331.077q.1-3.838.265-7.672c.053-1.106.082-1.659.146-2.765l-.7-.16-.42-.1c.132-.48.2-.72.333-1.2.061-.22.092-.33.153-.551l.339-.06.7-.126.988-.087.291.531c.208.379.312.569.521.948l-.49.355-.449.326c.146,1.027.222,1.54.378,2.567Q1494.937,1828.557,1495.624,1832.449Z" transform="translate(-1477.302 -1797.301)" fill="#1f3a6f"/>
                <path id="Path_75213" data-name="Path 75213" d="M1456.2,1610.779c-.041,3.317-1.443,8.949-5.421,9.3-4.177.372-5.51-5.3-5.629-8.328-.133-3.4,1.8-7.459,5.646-7.821C1454.666,1603.57,1456.245,1607.512,1456.2,1610.779Z" transform="translate(-1435.218 -1601.435)" fill="#fdc8aa"/>
                <path id="Path_75214" data-name="Path 75214" d="M1440.681,1585.756a.2.2,0,0,1-.316-.067,4.655,4.655,0,0,1,.784-5.391c2.565-2.318,8.77-3.892,11.52-2.25,1.115.666-.819,3.422-.633,3.831s-.258,3.253-.726,3.5c-1.166.613-4.216.3-5.94-.8C1443.788,1583.564,1441.94,1584.709,1440.681,1585.756Z" transform="translate(-1430.416 -1577.37)" fill="#1f3a6f"/>
                <path id="Path_75215" data-name="Path 75215" d="M1431.483,1680.894s-2.16-1.144-1.786,1.472,2.294,2.61,2.294,2.61C1431.776,1683.343,1431.675,1682.527,1431.483,1680.894Z" transform="translate(-1421.169 -1671.013)" fill="#fdc8aa"/>
                <path id="Path_75216" data-name="Path 75216" d="M1554.906,1669.366s2.155-1.526,1.779,1.157-2.27,3.013-2.27,3.013C1554.6,1671.868,1554.7,1671.034,1554.906,1669.366Z" transform="translate(-1534.295 -1660.394)" fill="#fdc8aa"/>
                <path id="Path_75217" data-name="Path 75217" d="M1563.024,1681.885s.422-.624.719-.387-.141,1.742-.357,1.913.413-1.412.128-1.488A1.217,1.217,0,0,0,1563.024,1681.885Z" transform="translate(-1542.1 -1671.737)" fill="#efa37d"/>
                <path id="Path_75218" data-name="Path 75218" d="M1438.553,1693.113s-.42-.549-.718-.26.144,1.717.362,1.849-.419-1.339-.134-1.465A1.307,1.307,0,0,1,1438.553,1693.113Z" transform="translate(-1428.497 -1682.006)" fill="#efa37d"/>
              </g>
            </g>
            <path id="Path_75219" data-name="Path 75219" d="M1179.669,1339.473l-35.038,3.095a2.027,2.027,0,0,1-2.246-2.345h0a3.259,3.259,0,0,1,2.8-2.787l35.038-3.095a2.01,2.01,0,0,1,2.223,2.343h0A3.237,3.237,0,0,1,1179.669,1339.473Z" transform="translate(-1131.99 -1322.86)" fill="#3b82f4"/>
            <path id="Path_75220" data-name="Path 75220" d="M1385.182,2022.3l-30.273,2.674a1.838,1.838,0,0,1-1.961-1.617h0a1.711,1.711,0,0,1,1.542-1.927l30.273-2.674a1.828,1.828,0,0,1,1.95,1.619h0A1.7,1.7,0,0,1,1385.182,2022.3Z" transform="translate(-1322.916 -1943.447)" fill="#ecf3fe"/>
            <path id="Path_75221" data-name="Path 75221" d="M1287.417,2124.218a1.681,1.681,0,0,1-.312,1.292,1.61,1.61,0,0,1-1.15.625l-56.693,5.008a1.925,1.925,0,0,1-2.029-1.609,1.677,1.677,0,0,1,.318-1.293,1.624,1.624,0,0,1,1.156-.626l56.693-5.007A1.916,1.916,0,0,1,1287.417,2124.218Z" transform="translate(-1208.918 -2037.609)" fill="#ecf3fe"/>
            <path id="Path_75222" data-name="Path 75222" d="M1257.605,2246.391l-68.332,6.035a2.025,2.025,0,0,1-2.1-1.6h0a1.555,1.555,0,0,1,1.4-1.907l68.332-6.035a2.015,2.015,0,0,1,2.091,1.6h0A1.546,1.546,0,0,1,1257.605,2246.391Z" transform="translate(-1172.58 -2146.67)" fill="#ecf3fe"/>
            <path id="Path_75223" data-name="Path 75223" d="M1280.179,2350.1l-68.332,6.035a2.114,2.114,0,0,1-2.163-1.585h0a1.492,1.492,0,0,1,1.339-1.9l68.332-6.035a2.1,2.1,0,0,1,2.152,1.587h0A1.483,1.483,0,0,1,1280.179,2350.1Z" transform="translate(-1192.982 -2240.725)" fill="#ecf3fe"/>
            <path id="Path_75224" data-name="Path 75224" d="M1306.349,2453.089l-68.332,6.036a2.207,2.207,0,0,1-2.224-1.572h0a1.431,1.431,0,0,1,1.278-1.883l68.332-6.035a2.2,2.2,0,0,1,2.213,1.574h0A1.423,1.423,0,0,1,1306.349,2453.089Z" transform="translate(-1216.642 -2334.134)" fill="#ecf3fe"/>
            <path id="Path_75225" data-name="Path 75225" d="M1268.64,2138.546c.213,1.412.324,2.117.555,3.527l-39.932,3.527a1.925,1.925,0,0,1-2.029-1.609,1.677,1.677,0,0,1,.318-1.292,1.625,1.625,0,0,1,1.156-.626Z" transform="translate(-1208.918 -2052.066)" fill="#33da82"/>
          </g>
        </g>
      </g>
      <g id="Group_142602" data-name="Group 142602" transform="translate(785.493 630.691)">
        <g id="Group_142598" data-name="Group 142598" transform="translate(0.529 23.912)">
          <rect id="Rectangle_54755" data-name="Rectangle 54755" width="4.921" height="19.734" transform="translate(34.968 5.621)" fill="#c4d7f2"/>
          <rect id="Rectangle_54756" data-name="Rectangle 54756" width="4.921" height="19.734" transform="translate(34.968 5.621)" fill="#003889" opacity="0.18" style="mix-blend-mode: multiply;isolation: isolate"/>
          <rect id="Rectangle_54757" data-name="Rectangle 54757" width="33.783" height="19.734" transform="translate(1.185 5.621)" fill="#c4d7f2"/>
          <path id="Path_75226" data-name="Path 75226" d="M2695.38,3308.524h-7.718a1.455,1.455,0,0,1-1.451-1.451h0a1.455,1.455,0,0,1,1.451-1.451h7.718a1.455,1.455,0,0,1,1.451,1.451h0A1.455,1.455,0,0,1,2695.38,3308.524Z" transform="translate(-2673.444 -3294.663)" fill="#1f3a6f"/>
          <rect id="Rectangle_54758" data-name="Rectangle 54758" width="34.968" height="7.036" fill="#3b82f4"/>
          <rect id="Rectangle_54759" data-name="Rectangle 54759" width="6.011" height="7.036" transform="translate(34.968)" fill="#246fdd"/>
          <path id="Path_75227" data-name="Path 75227" d="M2562.038,3263.565l33.782,3.4v-3.4Z" transform="translate(-2560.853 -3256.528)" fill="#003889" opacity="0.18" style="mix-blend-mode: multiply;isolation: isolate"/>
          <rect id="Rectangle_54760" data-name="Rectangle 54760" width="12.954" height="6.347" transform="translate(11.6 15.801)" fill="#fff"/>
        </g>
        <g id="Group_142599" data-name="Group 142599" transform="translate(2.827 19.259)">
          <rect id="Rectangle_54761" data-name="Rectangle 54761" width="19.817" height="4.715" fill="#d7e3f4"/>
          <path id="Path_75228" data-name="Path 75228" d="M2797.9,3139.078v3.038h.638v.838h-12.1v-4.715h12.1v.839Z" transform="translate(-2766.629 -3138.239)" fill="#87a7c6"/>
          <rect id="Rectangle_54762" data-name="Rectangle 54762" width="10.524" height="3.038" transform="translate(20.752 0.839)" fill="#d7e3f4"/>
          <rect id="Rectangle_54763" data-name="Rectangle 54763" width="10.524" height="0.756" transform="translate(20.752 0.839)" fill="#9fb8d6"/>
          <rect id="Rectangle_54764" data-name="Rectangle 54764" width="9.795" height="2.597" transform="translate(1.435 1.059)" fill="#fff"/>
          <rect id="Rectangle_54765" data-name="Rectangle 54765" width="1.179" height="2.597" transform="translate(12.07 1.059)" fill="#fff"/>
          <circle id="Ellipse_1013" data-name="Ellipse 1013" cx="1.298" cy="1.298" r="1.298" transform="translate(14.539 1.059)" fill="#fff"/>
          <circle id="Ellipse_1014" data-name="Ellipse 1014" cx="0.846" cy="0.846" r="0.846" transform="translate(14.991 1.512)" fill="#87a7c6"/>
        </g>
        <g id="Group_142600" data-name="Group 142600" transform="translate(0 0)">
          <path id="Path_75229" data-name="Path 75229" d="M2570.742,2931.745h-27.085v8.356h33v-8.356Z" transform="translate(-2543.657 -2931.745)" fill="#fff"/>
          <path id="Path_75230" data-name="Path 75230" d="M2581.312,3021.333h-27.086v6.22h33.212v-6.22Z" transform="translate(-2553.24 -3012.977)" fill="#fff"/>
          <path id="Path_75231" data-name="Path 75231" d="M2694.645,2931.745v8.356H2680.3l15.233,2.511v3.708h6.22v-6.22h-1.2v-8.356Z" transform="translate(-2667.559 -2931.745)" fill="#c4d7f2"/>
        </g>
        <g id="Group_142601" data-name="Group 142601" transform="translate(3.938 14.576)">
          <rect id="Rectangle_54766" data-name="Rectangle 54766" width="19.685" height="4.684" fill="#33da82"/>
          <path id="Path_75232" data-name="Path 75232" d="M2808.327,3088.854v3.018h.634v.833h-12.015v-4.684h12.015v.833Z" transform="translate(-2777.26 -3088.021)" fill="#23c16a"/>
          <rect id="Rectangle_54767" data-name="Rectangle 54767" width="10.453" height="3.018" transform="translate(20.613 0.833)" fill="#d7e3f4"/>
          <rect id="Rectangle_54768" data-name="Rectangle 54768" width="10.453" height="0.751" transform="translate(20.613 0.833)" fill="#9fb8d6"/>
          <rect id="Rectangle_54769" data-name="Rectangle 54769" width="9.73" height="2.579" transform="translate(1.426 1.052)" fill="#fff"/>
          <rect id="Rectangle_54770" data-name="Rectangle 54770" width="1.171" height="2.579" transform="translate(11.989 1.052)" fill="#fff"/>
          <circle id="Ellipse_1015" data-name="Ellipse 1015" cx="1.29" cy="1.29" r="1.29" transform="translate(14.442 1.052)" fill="#fff"/>
          <circle id="Ellipse_1016" data-name="Ellipse 1016" cx="0.84" cy="0.84" r="0.84" transform="translate(14.891 1.502)" fill="#33da82"/>
        </g>
        <path id="Path_75233" data-name="Path 75233" d="M2549.33,3188.121l34.968,2.586v-2.586Z" transform="translate(-2548.801 -3164.21)" fill="#246fdd"/>
      </g>
      <g id="Group_142603" data-name="Group 142603" transform="translate(903.006 611.824)">
        <path id="Path_75234" data-name="Path 75234" d="M3891.992,3136.512h23.2a1.8,1.8,0,0,0,1.8-1.8h0a1.8,1.8,0,0,0-1.8-1.8h-23.2a1.8,1.8,0,0,0-1.8,1.8h0A1.8,1.8,0,0,0,3891.992,3136.512Z" transform="translate(-3882.115 -3095.279)" fill="#1f3a6f"/>
        <rect id="Rectangle_54771" data-name="Rectangle 54771" width="33.16" height="8.64" rx="4.32" transform="translate(33.16 39.275) rotate(-180)" fill="#e59d29"/>
        <path id="Path_75235" data-name="Path 75235" d="M3940.177,2768.731h26.031a1.137,1.137,0,0,0,1.08-.925l6.226-37.424a.763.763,0,0,0-.771-.926H3946.71a1.138,1.138,0,0,0-1.08.926l-6.226,37.424A.763.763,0,0,0,3940.177,2768.731Z" transform="translate(-3926.728 -2729.456)" fill="#f4b545"/>
        <path id="Path_75236" data-name="Path 75236" d="M3936.133,3427.351a18.118,18.118,0,0,1,23.823,0Z" transform="translate(-3923.772 -3358.21)" fill="#1f3a6f"/>
        <rect id="Rectangle_54772" data-name="Rectangle 54772" width="1.353" height="27.124" transform="translate(20.802 39.998) rotate(-5.919)" fill="#1f3a6f"/>
      </g>
      <path id="Path_75237" data-name="Path 75237" d="M3062.19,2209.512l-1.233-2.54,1.559-1.534s-22.766-34.043-24.017-39.995c-.859-4.083-2.9-13.23-6.4-20.084q-.372-.729-.766-1.418a66.6,66.6,0,0,0,2.13-6.7c.378-1.826.011-4.894-.4-7.3-.188-1.1-.383-2.057-.521-2.7l-.389.431,1.256-1.395-9.1-8.447a26.626,26.626,0,0,1-2.169-7.856c-1.25-8.166-1.949-16.76-10.9-15.952s-4.376,13.121-4.238,15.473c.1,1.654.072,5.3.048,7.316-4.2,2.927-9.95,10.58-9.95,10.58l1.072,1.914-.239.315-.3.393s-14.936-14.345-21.083-13.623a.559.559,0,0,0-.563.519c-.082.544,2.052,1.654,3.174,1.884s1,1.024-.12.969c0,0-.312-.063-.3.3s1.677.681,2.514.614,5.081,3.731,7.922,7.689,7.294,7.128,8.773,7.243a5.809,5.809,0,0,0,1.612-.18,17.86,17.86,0,0,0,1.757-.5l1.188,2.121,3.89-6.005a33.973,33.973,0,0,0,3.633,9.117l1.125-.026-.1.682-10.186,66.654,1.116.361-.759,3.521s-2.969,4.709-4.453,4.708a.747.747,0,0,1-.166-.28c-.24-.73-4.982-.034-3.47,1.821s6.258,2.988,7.5,2.278,3.431-4.173,3.942-2.971-.659,4.9-.659,4.9l1.188.361s4.163-8.448,1.207-10.653l.8-2.027,1.682.544,4.981-19.36,1.325-5.153,5.719-22.232,35.7,48.025.739-.727,1.716,2.54s1.7,5.711.8,6.8a.717.717,0,0,1-.308-.087c-.688-.37-3.041,3.642-.748,3.917s6.007-2.369,6.233-3.818-1.024-5.65.178-5.126,3.245,4.156,3.245,4.156l.987-.6S3065.618,2208.982,3062.19,2209.512Zm-34.788-76.551c.03.175.059.362.088.554a21.222,21.222,0,0,1,.214,2.14,14.4,14.4,0,0,1-.288,2.361l-2.243-6.059,1.762,1.523Z" transform="translate(-2150.176 -1541.427)" fill="#003889" opacity="0.18" style="mix-blend-mode: multiply;isolation: isolate"/>
      <g id="Group_142604" data-name="Group 142604" transform="translate(835.896 552.554)">
        <path id="Path_75238" data-name="Path 75238" d="M3206.239,3242.953l-3.2,10.219s-3.512,4.826-4.964,4.709.794,1.434.794,1.434l8.208-3.864,5.216-10.6Z" transform="translate(-3187.001 -3135.791)" fill="#fdc8aa"/>
        <path id="Path_75239" data-name="Path 75239" d="M3165.411,3356.2s-1.043.16-1.212-.57-4.979-.034-3.648,1.821,5.966,2.988,7.281,2.278,3.838-4.174,4.231-2.971-1.137,4.9-1.137,4.9l1.154.361s5.543-9.385,1.74-10.956C3173.819,3351.065,3171.573,3354.594,3165.411,3356.2Z" transform="translate(-3153.207 -3233.819)" fill="#1f3a6f"/>
        <path id="Path_75240" data-name="Path 75240" d="M3816.023,3241.314l5.358,9.271s1.175,5.851.106,6.842,1.593.385,1.593.385l2.711-8.657-4.274-11.017Z" transform="translate(-3747.756 -3131.426)" fill="#fdc8aa"/>
        <path id="Path_75241" data-name="Path 75241" d="M3853.473,3342.294s-.588.876-1.239.507-3.4,3.642-1.129,3.918,6.238-2.369,6.605-3.817-.474-5.65.677-5.126,2.84,4.156,2.84,4.156l1.046-.6s-3.156-10.433-6.887-8.7C3855.386,3332.629,3856.463,3336.671,3853.473,3342.294Z" transform="translate(-3778.766 -3216.927)" fill="#1f3a6f"/>
        <path id="Path_75242" data-name="Path 75242" d="M3318.134,2634.381l-6.558,5.889-31.026-48.025-9.711,27.386-6.868,19.36-7.681-2.568,16.679-66.654.472-1.886,15.116-.837a12.607,12.607,0,0,1,3.457,4.056c.141.241.278.487.41.738.411.775.793,1.6,1.148,2.462,2.827,6.854,3.98,16,4.441,20.084C3298.684,2600.338,3318.134,2634.381,3318.134,2634.381Z" transform="translate(-3240.228 -2522.924)" fill="#1f3a6f"/>
        <path id="Path_75243" data-name="Path 75243" d="M3611.285,2610.336c-1.371,2.383-3.658,5.449-3.658,5.449l-.944-.97,2.152-8.029.891.35c.141.241.278.487.41.738C3610.547,2608.649,3610.929,2609.473,3611.285,2610.336Z" transform="translate(-3557.94 -2558.958)" fill="#072542"/>
        <path id="Path_75244" data-name="Path 75244" d="M3108.7,2352.281a22.681,22.681,0,0,1-2.851.866,5.991,5.991,0,0,1-1.629.18c-1.468-.114-5.614-3.284-8.068-7.243s-6.331-7.755-7.173-7.689-2.481-.25-2.454-.614.331-.3.331-.3c1.113.055,1.311-.738.214-.969s-3.126-1.34-2.99-1.884a.627.627,0,0,1,.614-.519c6.218-.722,19.756,13.623,19.756,13.623l.335-.393,1.338-1.564Z" transform="translate(-3084.077 -2311.69)" fill="#fdc8aa"/>
        <path id="Path_75245" data-name="Path 75245" d="M3310.055,2465.959a22.681,22.681,0,0,1-2.851.865l-1.066-5.8,1.339-1.564Z" transform="translate(-3285.427 -2425.369)" fill="#efa37d"/>
        <path id="Path_75246" data-name="Path 75246" d="M3412.277,2800.877l9.712-27.385s-2.667-4.919-3.25-6.556Z" transform="translate(-3381.667 -2704.171)" fill="#072542"/>
        <path id="Path_75247" data-name="Path 75247" d="M3577.618,2681.725l2.139,1.9-1.293-3.269-3.581-2.357-.362,1.079Z" transform="translate(-3528.778 -2623.526)" fill="#072542"/>
        <path id="Path_75248" data-name="Path 75248" d="M3454.574,2571.84c-4.465-.474-16.284-1.727-19.455-2.071l.472-1.886,15.116-.837A13.507,13.507,0,0,1,3454.574,2571.84Z" transform="translate(-3402.378 -2522.924)" fill="#072542"/>
        <path id="Path_75249" data-name="Path 75249" d="M3433.94,2119.556s-2.005-1.405-2.46-9.571-.316-16.76-9.342-15.952-5.654,13.121-5.746,15.473-.822,8.734-.822,8.734Z" transform="translate(-3384.653 -2093.981)" fill="#1f3a6f"/>
        <path id="Path_75250" data-name="Path 75250" d="M3442.327,2246.816a9.338,9.338,0,0,1-9.254,5.312c-6.808-.492-5.844-5.8-5.844-5.8l4.447-2.31.118-1.1.248-2.326,5.044-3.154v5.354Z" transform="translate(-3395.182 -2224.063)" fill="#fdc8aa"/>
        <path id="Path_75251" data-name="Path 75251" d="M3299.532,2343.865l4.469,9.655,4.475-6.005a30.887,30.887,0,0,0,2.745,9.117l11.186-.262,6.875-.162-2.125-7.788,1.614,1.523,7.178-7.191-9.367-9.554c-10.263,10.137-15.1-.488-15.1-.488C3307.039,2335.018,3299.532,2343.865,3299.532,2343.865Z" transform="translate(-3279.437 -2310.442)" fill="#f4b545"/>
        <path id="Path_75252" data-name="Path 75252" d="M3351.917,2453.514a9.118,9.118,0,0,1-.216-3.9l-4.259,9.908Z" transform="translate(-3322.878 -2416.442)" fill="#e59d29"/>
        <path id="Path_75253" data-name="Path 75253" d="M3544.79,2488.711l6.875-.162-2.125-7.788-2.205-2.1C3547.495,2478.9,3552.138,2486.031,3544.79,2488.711Z" transform="translate(-3501.82 -2442.784)" fill="#e59d29"/>
        <path id="Path_75254" data-name="Path 75254" d="M3481.918,2237.443v4.067c-1.328.689-3.824,1.813-5.292,1.413l.248-2.326Z" transform="translate(-3440.014 -2224.063)" fill="#efa37d"/>
        <path id="Path_75255" data-name="Path 75255" d="M3431.972,2135.469s-3.2,5.093.776,12.588a1.684,1.684,0,0,0,1.23.886c1.6.243,4.693.725,6.439-3.595a3.188,3.188,0,0,0,1.254-3.6c-.524-2.644-2.028.035-2.028.035S3432.8,2138.7,3431.972,2135.469Z" transform="translate(-3398.422 -2131.599)" fill="#fdc8aa"/>
        <path id="Path_75256" data-name="Path 75256" d="M3584.277,2460.7c-1.018,3.338-6.659,14.935-6.659,14.935l-3.1-2.651s1.9-5.6,3.13-9.759c.186-.624.355-1.216.5-1.751a15.045,15.045,0,0,0,.519-2.362,20.871,20.871,0,0,0-.006-2.14c-.011-.193-.021-.38-.034-.556l5.7-5.708c.075.64.178,1.6.258,2.7A23.556,23.556,0,0,1,3584.277,2460.7Z" transform="translate(-3528.778 -2417.436)" fill="#fdc8aa"/>
        <path id="Path_75257" data-name="Path 75257" d="M3624.53,2453.4l-5.924,3.566c-.011-.193-.021-.38-.035-.556l5.7-5.708C3624.348,2451.347,3624.45,2452.306,3624.53,2453.4Z" transform="translate(-3568.72 -2417.436)" fill="#efa37d"/>
      </g>
      <g id="Group_142605" data-name="Group 142605" transform="translate(906.338 472.202)">
        <path id="Path_75258" data-name="Path 75258" d="M3990.318,1234.087v51.9h-2.032v-53.525Q3989.315,1233.258,3990.318,1234.087Z" transform="translate(-3974.394 -1232.466)" fill="#c4d7f2"/>
        <path id="Path_75259" data-name="Path 75259" d="M3869.156,1737.34a14.83,14.83,0,0,1-.351,3.209h-29.115a14.83,14.83,0,0,1-.351-3.209c0-.229.005-.455.018-.681a14.907,14.907,0,0,1,29.8.681Z" transform="translate(-3839.34 -1676.734)" fill="#c4d7f2"/>
        <path id="Path_75260" data-name="Path 75260" d="M3864.774,1726.616c-2.289,6.2-9.982,10.757-19.118,10.757a26.164,26.164,0,0,1-6.125-.714,14.9,14.9,0,0,1,25.243-10.043Z" transform="translate(-3839.513 -1676.734)" fill="#fff"/>
      </g>
      <g id="Group_142606" data-name="Group 142606" transform="translate(631.618 632.99)">
        <path id="Path_75261" data-name="Path 75261" d="M999.376,3044.589c-3.443,3.1-1.289-.524-1.289-.524s-.049-1.437-.047-3.7c.006-6.1.383-18.212,3.107-24.544a7.07,7.07,0,0,1,2.95-3.734C1011.094,3008.641,1002.821,3041.484,999.376,3044.589Z" transform="translate(-987.761 -3006.662)" fill="#33da82"/>
        <path id="Path_75262" data-name="Path 75262" d="M1006.057,3081.792c-2.633,3.817-1.376-.211-1.376-.211s-.254-.925-.632-2.464c.006-6.1.384-18.212,3.107-24.544C1008.593,3063.43,1007.808,3079.252,1006.057,3081.792Z" transform="translate(-993.77 -3045.417)" fill="#1fb55f"/>
        <path id="Path_75263" data-name="Path 75263" d="M965.041,2988.75a3.723,3.723,0,0,1-.4.862c-2.633,3.818-1.376-.211-1.376-.211s-4.2-15.309-3.85-25.157c.12-3.358.771-6.082,2.3-7.346C967.4,2952.2,967.3,2982.278,965.041,2988.75Z" transform="translate(-953.278 -2956.402)" fill="#33da82"/>
        <path id="Path_75264" data-name="Path 75264" d="M965.041,3064.995a3.723,3.723,0,0,1-.4.862c-2.633,3.817-1.376-.211-1.376-.211s-4.2-15.309-3.85-25.157C962.243,3043.8,964.535,3056.571,965.041,3064.995Z" transform="translate(-953.278 -3032.646)" fill="#1fb55f"/>
        <path id="Path_75265" data-name="Path 75265" d="M901.629,3030.458s-11.643-26.073-6.454-31.894,9.871,27.721,7.846,31.894S901.629,3030.458,901.629,3030.458Z" transform="translate(-893.843 -2994.018)" fill="#33da82"/>
        <path id="Path_75266" data-name="Path 75266" d="M925.931,3271.682v8.411a7.993,7.993,0,0,1-7.993,7.994h-1.856c-.258,0-.512-.011-.763-.036a8,8,0,0,1-7.231-7.958v-8.411Z" transform="translate(-906.759 -3242.277)" fill="#9fb8d6"/>
        <path id="Path_75267" data-name="Path 75267" d="M922.55,3271.682v8.411a7.264,7.264,0,1,1-14.462,0v-8.411Z" transform="translate(-906.759 -3242.277)" fill="#c4d7f2"/>
      </g>
      <circle id="Ellipse_1017" data-name="Ellipse 1017" cx="21.537" cy="21.537" r="21.537" transform="translate(650.704 424.458) rotate(-45)" fill="#fff"/>
      <circle id="Ellipse_1018" data-name="Ellipse 1018" cx="6.046" cy="6.046" r="6.046" transform="translate(843.071 423.843)" fill="#c4d7f2"/>
      <circle id="Ellipse_1019" data-name="Ellipse 1019" cx="6.046" cy="6.046" r="6.046" transform="translate(737.648 440.335) rotate(-76.717)" fill="#fff"/>
      <circle id="Ellipse_1020" data-name="Ellipse 1020" cx="6.046" cy="6.046" r="6.046" transform="matrix(0.218, -0.976, 0.976, 0.218, 604.645, 601.257)" fill="#c4d7f2"/>
      <path id="Path_75268" data-name="Path 75268" d="M1266.448,1886.053c1.161-1.852,1.776-4.328-.183-5.375a1.649,1.649,0,0,0-2.562.75l-.267-.45a6.028,6.028,0,0,0,1.273-7.44,5.709,5.709,0,0,0-8.055-1.674,6.112,6.112,0,0,0-2.216,8.166,5.617,5.617,0,0,0,7,2.21l.242.409c-.641.8-.129,3.156-.109,3.841a3.711,3.711,0,0,1-.856,1.606l-.262-.213-12.723,14.2-8.952,4.526,1.324-2.284-3,.043.041-.61.041-.614a3.781,3.781,0,0,0,.741-.14c2.7-.8,4.183-4.426,3.318-8.106a9.074,9.074,0,0,0-.384-1.232c1.416-1.455,2.544-3.251,1.54-4.715-2.057-3-11.066-2.285-13.065,1.009-1.816,2.992-2.324,8.407.212,11.532a3.047,3.047,0,0,0,1.321.938l-.143.513-.427,1.522-1.542.022s-1.937,1.718-1.674,1.914a1.531,1.531,0,0,0,.4.054c-.048.046-.1.092-.14.142a10.928,10.928,0,0,0-1.168,1.623v0s-10.64,15.629-12.567,20.259l-4.256.911,2.13,14.123,2.815-.6a3.271,3.271,0,0,0,2.523.545s3.45-.1,2.381-1.6l.989-.212-.1,1.754-3.967,66.524h.588l-.232,1.825-.375.03-1.171,4.858a.962.962,0,0,0,.809,1.2c3.591.46,15.023,1.8,14.972.163-.06-1.938-1.778-2.526-5.024-3.478a5.275,5.275,0,0,1-3.5-3.241l-.333.027.118-1.389h1.272l3.579-22.6v0l4.091-25.828,5.8,11.923,1.84,36.5,1.32-.156-.083,1.78-.373.06-.782,4.91a.959.959,0,0,0,.908,1.13c3.636.168,15.2.577,15.017-1.039-.216-1.917-1.985-2.362-5.315-3.045a5.286,5.286,0,0,1-3.771-2.932l-.332.053.006-1.54.942-.111,1.165-36.324-6.509-31.32-.179-.86c.9-.054,1.44-.091,1.44-.091l-1.664-17.513c1.155,4.482,2.656,9.276,2.656,9.276l2.579,1.38.133-2a50.7,50.7,0,0,1-4.887-14.9l12.075-9.319,10.764-16.87-.4-.322,1.036-1.94a2.545,2.545,0,0,0,.558-.34,1.134,1.134,0,0,0,1.345.074,1.192,1.192,0,0,0,.431-1.589Zm-5.889-5.3a3.943,3.943,0,0,1-4.613-1.679,4.314,4.314,0,0,1,1.567-5.766,4.031,4.031,0,0,1,5.688,1.18,4.233,4.233,0,0,1-.645,5,4.638,4.638,0,0,1-.92.765A4.512,4.512,0,0,1,1260.559,1880.755Z" transform="translate(-548.309 -1339.141)" fill="#003889" opacity="0.18" style="mix-blend-mode: multiply;isolation: isolate"/>
      <g id="Group_142609" data-name="Group 142609" transform="translate(631.818 592.098)">
        <g id="Group_142608" data-name="Group 142608" transform="translate(80.62)">
          <g id="Group_142607" data-name="Group 142607">
            <path id="Path_75269" data-name="Path 75269" d="M1798.981,2517.961l1.307,1.979-7.072,21.237h-30.857l-1.969-1.339,5.257-21.876Z" transform="translate(-1760.39 -2517.961)" fill="#1f3a6f"/>
            <path id="Path_75270" data-name="Path 75270" d="M1819.43,2539.178l-7.072,21.237H1781.5l5.274-21.237Z" transform="translate(-1779.531 -2537.199)" fill="#f4b545"/>
          </g>
          <path id="Path_75271" data-name="Path 75271" d="M1940.694,2653.026h2.093l4.846,18.558h-10.487c-.079,0,2.541-18.558,2.541-18.558Z" transform="translate(-1920.659 -2640.428)" fill="#fff"/>
        </g>
        <path id="Path_75272" data-name="Path 75272" d="M1134.284,2926.074h-4.058l-4.623-12.091-2.313-6.045-10.937-28.6-3.458-9.043,3.708-.917,4.862,12.716,7.812,20.429.934,2.442Z" transform="translate(-1089.038 -2836.601)" fill="#c4d7f2"/>
        <path id="Path_75273" data-name="Path 75273" d="M1117.662,2882.608l-5.309-3.271-3.458-9.043,3.708-.917Z" transform="translate(-1089.038 -2836.601)" fill="#003889" opacity="0.18" style="mix-blend-mode: multiply;isolation: isolate"/>
        <path id="Path_75274" data-name="Path 75274" d="M1266.157,3227.193l-.609,9.02-2.313-6.045,1.987-5.417Z" transform="translate(-1228.984 -3158.83)" fill="#003889" opacity="0.18" style="mix-blend-mode: multiply;isolation: isolate"/>
        <path id="Path_75275" data-name="Path 75275" d="M1200.64,2876.694,1196,2893.741l-10.437,38.364h-3.971l11.109-40.832,4.025-14.792.123-.453,1.931.34Z" transform="translate(-1154.957 -2842.631)" fill="#c4d7f2"/>
        <path id="Path_75276" data-name="Path 75276" d="M1303.271,2880l-4.973,18.277-3.516-1.668,4.578-16.823,2.054-.114Z" transform="translate(-1257.587 -2845.933)" fill="#9fb8d6"/>
        <path id="Path_75277" data-name="Path 75277" d="M1260.579,3225.375a.814.814,0,1,1-.795-.639A.73.73,0,0,1,1260.579,3225.375Z" transform="translate(-1225.134 -3158.817)" fill="#fff"/>
        <path id="Path_75278" data-name="Path 75278" d="M2106.128,2926.074h-4.058l-4.623-12.091-2.312-6.045-10.937-28.6-3.458-9.043,3.708-.917,4.863,12.716,7.812,20.429.934,2.442Z" transform="translate(-1970.24 -2836.601)" fill="#c4d7f2"/>
        <path id="Path_75279" data-name="Path 75279" d="M2089.506,2882.608l-5.309-3.271-3.458-9.043,3.708-.917Z" transform="translate(-1970.24 -2836.601)" fill="#003889" opacity="0.18" style="mix-blend-mode: multiply;isolation: isolate"/>
        <path id="Path_75280" data-name="Path 75280" d="M2238,3227.193l-.609,9.02-2.312-6.045,1.987-5.417Z" transform="translate(-2110.186 -3158.83)" fill="#003889" opacity="0.18" style="mix-blend-mode: multiply;isolation: isolate"/>
        <path id="Path_75281" data-name="Path 75281" d="M2172.484,2876.694l-4.638,17.046-10.437,38.364h-3.971l11.109-40.832,4.025-14.792.123-.453,1.931.34Z" transform="translate(-2036.158 -2842.631)" fill="#c4d7f2"/>
        <path id="Path_75282" data-name="Path 75282" d="M2275.115,2880l-4.973,18.277-3.516-1.668,4.578-16.823,2.054-.114Z" transform="translate(-2138.789 -2845.933)" fill="#003889" opacity="0.18" style="mix-blend-mode: multiply;isolation: isolate"/>
        <path id="Path_75283" data-name="Path 75283" d="M963.254,2838.422h-67.26v5.773h151.051v-5.773Z" transform="translate(-895.993 -2808.533)" fill="#c4d7f2"/>
        <path id="Path_75284" data-name="Path 75284" d="M2232.423,3225.375a.814.814,0,1,1-.795-.639A.73.73,0,0,1,2232.423,3225.375Z" transform="translate(-2106.336 -3158.817)" fill="#fff"/>
        <path id="Path_75285" data-name="Path 75285" d="M914.764,2844.2H895.993v-5.773H910.3Z" transform="translate(-895.993 -2808.533)" fill="#003889" opacity="0.18" style="mix-blend-mode: multiply;isolation: isolate"/>
        <path id="Path_75286" data-name="Path 75286" d="M1091.339,2749.711c-.045,0-.09,0-.137,0h-.33l.129-1.273h-7.906l.771,7.616a.848.848,0,0,0,.831.777h4.7a.845.845,0,0,0,.826-.752h.977a3,3,0,0,0,.757-.1,3.172,3.172,0,0,0,2.309-3.087A3.135,3.135,0,0,0,1091.339,2749.711Zm.163,5.323a2.059,2.059,0,0,1-.3.022h-.871l.438-4.331h.433a1.987,1.987,0,0,1,.625.1,2.184,2.184,0,0,1-.325,4.209Z" transform="translate(-1065.644 -2726.938)" fill="#1f3a6f"/>
      </g>
      <g id="Group_142610" data-name="Group 142610" transform="translate(655.073 531.747)">
        <path id="Path_75287" data-name="Path 75287" d="M1585.777,1871.863a5.894,5.894,0,0,0,5.474,10.376l3.561,5.4a1.146,1.146,0,1,0,1.913-1.262l-3.561-5.4a5.894,5.894,0,0,0-7.387-9.115Zm6.408,7.63a4.162,4.162,0,1,1,.313-5A4.2,4.2,0,0,1,1592.185,1879.493Z" transform="translate(-1542.295 -1870.888)" fill="#315389"/>
        <path id="Path_75288" data-name="Path 75288" d="M1537.175,3375.154c-.343-1.917-2.141-2.362-5.517-3.045a5.786,5.786,0,0,1-3.965-2.932l-5.992.977-.456,4.91a1.035,1.035,0,0,0,.983,1.129C1525.874,3376.361,1537.465,3376.769,1537.175,3375.154Z" transform="translate(-1486.178 -3229.434)" fill="#15315e"/>
        <path id="Path_75289" data-name="Path 75289" d="M1529.123,3327.7l.11,5.573,5.315-1.071-.271-4.352Z" transform="translate(-1493.327 -3191.83)" fill="#fff"/>
        <path id="Path_75290" data-name="Path 75290" d="M1280.121,3329.945l-.337,5.563,5.384-.641.079-4.36Z" transform="translate(-1267.243 -3193.862)" fill="#fff"/>
        <path id="Path_75291" data-name="Path 75291" d="M1282.921,3382.92c-.189-1.938-1.945-2.526-5.255-3.478a5.787,5.787,0,0,1-3.718-3.241l-6.051.493-.849,4.858a1.035,1.035,0,0,0,.889,1.2C1271.56,3383.217,1283.08,3384.554,1282.921,3382.92Z" transform="translate(-1255.681 -3235.803)" fill="#15315e"/>
        <path id="Path_75292" data-name="Path 75292" d="M1282.676,2607.5v16.145l-.531,5.762-4.455,48.426h-7.122l-.449-66.524-.025-3.809Z" transform="translate(-1258.457 -2538.801)" fill="#1f3a6f"/>
        <path id="Path_75293" data-name="Path 75293" d="M1345.179,2744.176l2.672,34.989,2.376-25.829Z" transform="translate(-1326.538 -2662.726)" fill="#15315e"/>
        <path id="Path_75294" data-name="Path 75294" d="M1344.865,2676.946l-7.478.89-4.263-36.5-6.6-11.924-7.486-13.538V2607.5h15.495l.493,1.8,8.588,31.32Z" transform="translate(-1302.84 -2538.801)" fill="#1f3a6f"/>
        <path id="Path_75295" data-name="Path 75295" d="M1290.647,2609.3c-1.148.221-4.3.8-7.972,1.3-2.582.349-5.423.659-8.016.771a33.033,33.033,0,0,1-4.54-.064l-.025-3.809h20.06Z" transform="translate(-1258.457 -2538.801)" fill="#15315e"/>
        <path id="Path_75296" data-name="Path 75296" d="M1353.787,2191.321v6.277l-7.329-.1.856-4.006.151-.712Z" transform="translate(-1327.698 -2161.435)" fill="#fdc8aa"/>
        <path id="Path_75297" data-name="Path 75297" d="M1362.112,2191.321v2.981c-1.124.151-4.138.458-6.473-.814l.151-.712Z" transform="translate(-1336.024 -2161.435)" fill="#efa37d"/>
        <ellipse id="Ellipse_1021" data-name="Ellipse 1021" cx="5" cy="6.959" rx="5" ry="6.959" transform="translate(18.017 20.229) rotate(-16.767)" fill="#fdc8aa"/>
        <path id="Path_75298" data-name="Path 75298" d="M1657.032,1981.308c.07-.1,1.715-2.066,1.645-2.8s-.836-3.4,0-3.991.7,1.75,1.083,1.716.035-5.181,3.221-3.536.257,6.818-1.458,7.553l-1.649,3.525Z" transform="translate(-1609.306 -1962.906)" fill="#fdc8aa"/>
        <path id="Path_75299" data-name="Path 75299" d="M1328.3,2056.729a1.2,1.2,0,0,0-.4-1.179,2.108,2.108,0,0,1-.754-2.091c.226-1.193.966-.732,1.4-.337a.587.587,0,0,0,.744.04c1.416-1.036,5.817-4.561,3.912-7.092-2.255-3-11.218-2.285-13,1.009-1.617,2.992-1.766,8.407.978,11.532a3.335,3.335,0,0,0,2.085,1.109C1324.864,2059.925,1327.616,2059.8,1328.3,2056.729Z" transform="translate(-1302.84 -2028.01)" fill="#1f3a6f"/>
        <path id="Path_75300" data-name="Path 75300" d="M1455.632,2344.422a54.389,54.389,0,0,0,6.222,16.525v2l-2.671-1.38s-4.763-12.553-5.03-16.025Z" transform="translate(-1425.349 -2300.257)" fill="#1f3a6f"/>
        <path id="Path_75301" data-name="Path 75301" d="M1198.671,2271.109s-10.963,17.843-11.438,21.048,1.365,9.378,1.365,9.378l6.291-.594s5.045-25.581,5.045-25.818S1198.671,2271.109,1198.671,2271.109Z" transform="translate(-1183.253 -2233.781)" fill="#e59d29"/>
        <rect id="Rectangle_54773" data-name="Rectangle 54773" width="17.924" height="14.453" transform="translate(0 58.498) rotate(-12.253)" fill="#15315e"/>
        <path id="Path_75302" data-name="Path 75302" d="M1202.795,2613.871s-2.215.46-3.113-1.226.759-3.652,4.314-1.284S1202.795,2613.871,1202.795,2613.871Z" transform="translate(-1194.394 -2541.307)" fill="#fdc8aa"/>
        <path id="Path_75303" data-name="Path 75303" d="M1288.039,2072.577l-12.405,10.09s0,.009,0,.025l3.705,22.96s-6.54.452-12.6.52c-4.847.053-9.382-.141-10.016-1.011-1.352-1.859.52-27.076,5.7-33.352a2.489,2.489,0,0,1,1.763-.892l9.672-.611v1.513l8.652-4.526,11.781-14.2,3.383,2.61Z" transform="translate(-1245.954 -2036.103)" fill="#f4b545"/>
        <path id="Path_75304" data-name="Path 75304" d="M1330.477,2231.641l1.173-2.284-11.336.163s-1.823,1.718-1.547,1.914S1330.477,2231.641,1330.477,2231.641Z" transform="translate(-1302.564 -2195.923)" fill="#1f3a6f"/>
        <path id="Path_75305" data-name="Path 75305" d="M1380.839,2393.374s-6.54.452-12.6.52c11.453-3.132,9-22.69,8.892-23.48Z" transform="translate(-1347.45 -2323.823)" fill="#e59d29"/>
      </g>
    </g>
  </g>
</svg>
